<svg version="1.1" id="genius" xmlns="http://www.w3.org/2000/svg" xmlns:xlink="http://www.w3.org/1999/xlink" x="0px" y="0px"
	 viewBox="0 0 600 600" enable-background="new 0 0 600 600" xml:space="preserve">
<g id="fundo">
	<radialGradient id="SVGID_1_" cx="300" cy="300" r="339.8575" gradientUnits="userSpaceOnUse">
		<stop  offset="0.7535" style="stop-color:#000000"/>
		<stop  offset="0.7817" style="stop-color:#040404"/>
		<stop  offset="0.8123" style="stop-color:#121212"/>
		<stop  offset="0.8441" style="stop-color:#272727"/>
		<stop  offset="0.8767" style="stop-color:#464646"/>
		<stop  offset="0.91" style="stop-color:#6D6D6D"/>
		<stop  offset="0.9437" style="stop-color:#9D9D9D"/>
		<stop  offset="0.9772" style="stop-color:#D5D5D5"/>
		<stop  offset="1" style="stop-color:#FFFFFF"/>
	</radialGradient>
	<path fill="url(#SVGID_1_)" d="M300,599.5c-80,0-155.2-31.2-211.8-87.7C31.7,455.2,0.5,380,0.5,300c0-80,31.2-155.2,87.7-211.8
		C144.8,31.7,220,0.5,300,0.5c80,0,155.2,31.2,211.8,87.7c56.6,56.6,87.7,131.8,87.7,211.8c0,80-31.2,155.2-87.7,211.8
		C455.2,568.3,380,599.5,300,599.5z"/>
	<path d="M300,1c40.4,0,79.5,7.9,116.4,23.5c35.6,15.1,67.6,36.6,95,64.1c27.5,27.5,49,59.4,64.1,95c15.6,36.9,23.5,76,23.5,116.4
		s-7.9,79.5-23.5,116.4c-15.1,35.6-36.6,67.6-64.1,95c-27.5,27.5-59.4,49-95,64.1c-36.9,15.6-76,23.5-116.4,23.5
		s-79.5-7.9-116.4-23.5c-35.6-15.1-67.6-36.6-95-64.1c-27.5-27.5-49-59.4-64.1-95C8.9,379.5,1,340.4,1,300s7.9-79.5,23.5-116.4
		c15.1-35.6,36.6-67.6,64.1-95c27.5-27.5,59.4-49,95-64.1C220.5,8.9,259.6,1,300,1 M300,0C134.3,0,0,134.3,0,300s134.3,300,300,300
		s300-134.3,300-300S465.7,0,300,0L300,0z"/>
</g>
<g id="red">
	
		<radialGradient id="SVGID_2_" cx="440.3789" cy="159.3269" r="122.3024" fx="325.2189" fy="159.668" gradientUnits="userSpaceOnUse">
		<stop  offset="0" style="stop-color:#FFFFFF"/>
		<stop  offset="0.1479" style="stop-color:#FFCECE"/>
		<stop  offset="0.3831" style="stop-color:#FF8686"/>
		<stop  offset="0.5945" style="stop-color:#FF4C4C"/>
		<stop  offset="0.7741" style="stop-color:#FF2323"/>
		<stop  offset="0.9151" style="stop-color:#FF0909"/>
		<stop  offset="1" style="stop-color:#FF0000"/>
	</radialGradient>
	<path fill="url(#SVGID_2_)" d="M434.3,281.5c-8-60.6-55.8-108.5-116.4-116.8V37.2c63.3,4.4,123,31.5,168,76.5
		c45.1,45,72.3,104.6,76.8,167.8H434.3z"/>
	<path d="M318.4,37.7c63,4.5,122.3,31.6,167.2,76.3c44.8,44.8,72,104,76.6,167H434.8c-8.2-60.5-55.8-108.3-116.3-116.7V37.7
		 M317.4,36.6v128.6c60.6,8,108.6,56.1,116.4,116.8h129.5C554.3,150.5,449,45.4,317.4,36.6L317.4,36.6z"/>
</g>
<g id="blue">
	
		<radialGradient id="SVGID_3_" cx="159.0686" cy="159.2976" r="122.541" fx="43.2382" fy="159.5427" gradientUnits="userSpaceOnUse">
		<stop  offset="0" style="stop-color:#FFFFFF"/>
		<stop  offset="1.468700e-02" style="stop-color:#FAFAFF"/>
		<stop  offset="0.2323" style="stop-color:#AFAFFF"/>
		<stop  offset="0.4363" style="stop-color:#7171FF"/>
		<stop  offset="0.6208" style="stop-color:#4040FF"/>
		<stop  offset="0.7821" style="stop-color:#1D1DFF"/>
		<stop  offset="0.9139" style="stop-color:#0808FF"/>
		<stop  offset="1" style="stop-color:#0000FF"/>
	</radialGradient>
	<path fill="url(#SVGID_3_)" d="M36.2,281.5c4.5-63.4,31.9-123.1,77.1-168.1c45.3-45,105.1-72.1,168.6-76.3v127.5
		c-61.1,7.9-109.2,55.8-117.3,116.9H36.2z"/>
	<path d="M281.4,37.6v126.6c-60.9,8.1-109,55.9-117.2,116.8H36.7c4.6-63.1,31.9-122.5,76.9-167.3C158.7,68.9,218.3,41.9,281.4,37.6
		 M282.4,36.6C150.4,45,44.8,150.2,35.7,282h129.5c7.9-61,56.3-109.3,117.3-116.9V36.6L282.4,36.6z"/>
</g>
<g id="yellow">
	
		<radialGradient id="SVGID_4_" cx="440.4438" cy="440.6729" r="122.8352" fx="323.7682" fy="441.2895" gradientUnits="userSpaceOnUse">
		<stop  offset="0" style="stop-color:#FFFFFF"/>
		<stop  offset="3.598100e-02" style="stop-color:#FFFFF2"/>
		<stop  offset="0.2466" style="stop-color:#FFFFAA"/>
		<stop  offset="0.4447" style="stop-color:#FFFF6D"/>
		<stop  offset="0.6247" style="stop-color:#FFFF3E"/>
		<stop  offset="0.7829" style="stop-color:#FFFF1C"/>
		<stop  offset="0.9134" style="stop-color:#FFFF07"/>
		<stop  offset="1" style="stop-color:#FFFF00"/>
	</radialGradient>
	<path fill="url(#SVGID_4_)" d="M317.9,434.3c60.6-8.2,108.4-56.1,116.4-116.8h128.6c-4.1,63.7-31.1,123.8-76.3,169.2
		c-45.1,45.4-105,72.8-168.7,77.2V434.3z"/>
	<path d="M562.4,318c-4.2,63.4-31.2,123.1-76.1,168.3c-44.9,45.2-104.5,72.5-167.8,77V434.7c60.5-8.4,108.1-56.2,116.3-116.7H562.4
		 M563.5,317H433.9c-7.8,60.7-55.8,108.8-116.4,116.8v130.6C449.7,555.5,555.3,449.4,563.5,317L563.5,317z"/>
</g>
<g id="green">
	
		<radialGradient id="SVGID_5_" cx="159.0034" cy="440.7021" r="123.0731" fx="42.1806" fy="441.0176" gradientUnits="userSpaceOnUse">
		<stop  offset="0" style="stop-color:#FFFFFF"/>
		<stop  offset="0.119" style="stop-color:#D2FFD2"/>
		<stop  offset="0.3009" style="stop-color:#93FF93"/>
		<stop  offset="0.4751" style="stop-color:#5EFF5E"/>
		<stop  offset="0.6367" style="stop-color:#35FF35"/>
		<stop  offset="0.7829" style="stop-color:#18FF18"/>
		<stop  offset="0.9088" style="stop-color:#06FF06"/>
		<stop  offset="1" style="stop-color:#00FF00"/>
	</radialGradient>
	<path fill="url(#SVGID_5_)" d="M281.9,563.9C150,555.2,44.4,449.4,36.1,317.5h128.6c8.1,61,56.2,109,117.3,116.9V563.9z"/>
	<path d="M164.2,318c8.2,60.9,56.3,108.8,117.2,116.8v128.6C150.2,554.5,45.2,449.3,36.6,318H164.2 M165.1,317H35.5
		c8.2,132.7,114.2,239,246.9,247.4V433.9C221.4,426.3,173,378,165.1,317L165.1,317z"/>
</g>
</svg>
